<svg width="147" height="32" viewBox="0 0 147 32" fill="none" xmlns="http://www.w3.org/2000/svg">
<g clip-path="url(#clip0_21_641)">
<g clip-path="url(#clip1_21_641)">
<path d="M5.27361 24.6279C5.17761 24.6521 5.16262 24.5892 5.10713 24.5478C4.77361 24.2998 4.40956 23.8035 4.27304 23.42C3.34074 20.8031 6.15265 18.2975 4.41511 15.3229C3.08324 13.0432 -0.37241 14.001 0.373993 16.6578C0.660343 17.6763 0.993313 17.8328 0.696415 19.0354C0.253014 20.8316 -0.238113 21.5576 0.129261 23.5636C0.578213 26.0133 2.99611 28.983 5.74809 29.04C5.91791 29.0438 6.11602 28.9405 6.28917 28.983C6.32579 28.9921 6.66431 29.4509 6.77142 29.5493C8.08608 30.7523 10.4973 31.0212 12.236 31.0836C12.7831 31.1035 13.6533 31.1358 14.1644 31.0116C14.837 30.8481 15.2166 30.3398 15.4558 29.744C18.1362 30.5001 20.7894 31.3606 23.5047 32L38.4194 30.7997C38.8534 30.6803 39.2613 30.5076 39.4688 30.0957L41.9966 18.4567C42.066 16.9993 40.9705 16.8917 39.7641 16.9379C38.6309 16.9815 37.4577 17.1375 36.3223 17.2058C33.0009 17.4058 29.6752 17.5623 26.3577 17.821C26.2362 17.8543 26.1346 17.921 26.0336 17.9909C25.0475 18.6745 24.7445 21.2715 24.4742 22.3966C24.4542 22.4789 24.5114 22.4907 24.3649 22.4767C24.1496 21.9599 23.8843 21.4533 23.8099 20.8897L23.8649 17.3139C24.109 17.3644 24.4348 17.1945 24.6612 17.0912C26.1063 16.4335 28.0331 14.8346 28.5675 13.3476C28.7745 12.7706 28.9321 12.3409 29.1635 11.774C29.5692 10.7786 29.613 9.70135 29.4138 8.65587C29.8 8.70104 30.2135 8.41978 30.0381 8.02396C29.835 7.56683 29.0569 7.75452 28.8283 7.52918C28.6968 7.40011 28.0592 6.32022 27.9615 6.11048C27.9077 5.99485 27.8777 5.87008 27.8289 5.75284C27.8033 4.25723 28.0486 2.45507 27.6224 1.00732C27.0697 -0.869054 25.2672 0.314099 24.2827 1.07401C23.4692 1.70215 22.7788 2.45292 22.1057 3.21659C21.664 3.16281 21.2289 3.05149 20.7844 3.009C19.9098 2.9251 18.9464 2.97404 18.0729 3.06923C17.8465 3.09397 17.3537 3.24724 17.1805 3.22519C17.0213 3.20476 16.0856 2.01192 15.8753 1.79734C15.2493 1.15898 14.029 0.121568 13.1128 0.0113193C11.7715 -0.150558 11.5767 1.53597 11.4052 2.47013C11.3353 2.8525 11.2654 3.2494 11.2193 3.63446C11.1261 4.41642 11.1699 5.34411 11.0328 6.08896C10.9896 6.32344 10.5761 6.90265 10.4429 7.18446C9.37577 9.44482 9.53616 11.7858 10.7631 13.9478C8.90962 15.1358 7.44012 16.8503 6.50227 18.8009C5.62934 20.6159 5.27916 22.63 5.27306 24.6279H5.27361ZM22.6795 4.17279C22.9742 3.91089 23.3504 3.28812 23.6695 2.95414C24.1712 2.42979 25.6723 1.10735 26.361 0.986345C26.6818 0.929877 26.6895 1.3499 26.7339 1.59943C26.9404 2.75355 26.8771 4.16688 26.8632 5.35057C26.8605 5.57106 26.7733 5.71735 26.8188 5.98087C26.9115 6.51436 27.563 7.13874 27.8044 7.63298C26.9642 7.63405 26.1157 7.63352 25.2767 7.68999C24.2739 7.75721 23.0885 7.80023 22.5519 8.76719C21.9214 8.66071 21.2516 8.66178 20.6279 8.80914C20.0613 8.04332 19.2155 7.85025 18.2865 7.79539C17.0462 7.72225 15.3126 7.78302 14.0701 7.90295C13.7904 7.92984 13.4729 8.02288 13.3398 8.28264L11.156 8.06322L12.0306 6.24923C12.2326 4.75146 12.1455 2.66642 12.7116 1.26224C12.7992 1.04443 12.8891 1.05303 13.1122 1.08476C13.7426 1.1735 14.7393 2.07162 15.18 2.52391C15.6467 3.00255 16.1267 3.79042 16.5646 4.19377C16.8959 4.4987 16.9907 4.29272 17.3148 4.21851C18.6217 3.91788 20.1062 3.88131 21.4336 4.10019C21.826 4.16473 22.3465 4.46804 22.6789 4.17279H22.6795ZM27.8732 8.61553C28.4559 8.69782 28.4953 9.09148 28.5281 9.59432C28.5902 10.5382 28.3427 11.9773 27.32 12.3538C26.7212 12.5743 24.9293 12.7141 24.3627 12.5011C23.8582 12.3118 23.4548 10.9318 23.3804 10.4414C23.25 9.58088 23.3038 8.985 24.2944 8.7758C24.952 8.63704 27.2212 8.52303 27.8727 8.615L27.8732 8.61553ZM17.9935 8.77849C18.3692 8.80054 19.564 8.864 19.6911 9.28455C19.7355 9.43191 19.7166 10.0025 19.705 10.1902C19.6617 10.8694 19.3027 12.2118 18.5773 12.4855C17.7982 12.7797 15.9191 12.7071 15.0717 12.5786C14.9885 12.5662 14.9447 12.5393 14.877 12.4984C14.0273 11.9816 14.0573 9.78632 14.1217 8.921C14.1927 8.82259 15.0451 8.88121 15.2371 8.8726C16.1583 8.83173 17.0684 8.72417 17.993 8.77849H17.9935ZM10.8236 9.08611L12.7893 9.19635C12.8592 9.20657 12.9796 9.24153 13.0151 9.30015C13.0656 9.38351 13.0745 10.5333 13.105 10.7726C13.2332 11.7918 13.6539 13.3363 14.8709 13.5789C15.7299 13.7504 17.6151 13.6988 18.483 13.524C19.8915 13.2401 20.5269 11.8251 20.6939 10.5575C20.7483 10.1434 20.5213 9.86806 21.0441 9.71371C21.4525 9.59271 21.9004 9.59648 22.3033 9.73792C22.356 10.6592 22.5813 12.0521 23.1751 12.7915C24.1207 13.9688 26.2289 13.6735 27.5264 13.2798C27.5714 13.3342 27.2473 13.7542 27.1846 13.8354C26.4892 14.7437 25.3943 15.6472 24.3277 16.1221C23.9564 16.2877 23.2356 16.4346 22.9548 16.6201C22.8815 16.6685 22.841 16.7309 22.8216 16.8137C22.9314 18.5594 22.4875 20.6186 23.1723 22.2589C23.4254 22.865 23.8504 23.4039 24.0891 24.0089L23.5863 26.6172C23.4564 26.6511 23.4925 26.5844 23.4598 26.5484C22.8099 25.839 21.2439 24.3472 21.1029 23.4582C21.0285 22.9903 21.2305 21.4162 20.271 21.8179C19.8088 22.0115 20.0713 22.6354 20.0929 22.9849C20.1162 23.3619 20.0724 24.3977 19.7222 24.6231C19.4392 24.8048 18.6395 24.1014 18.4525 23.8755C17.9314 23.2447 17.9847 22.4541 17.7194 21.7356C17.5868 21.3764 17.468 21.207 17.0218 21.3054C16.6961 21.3775 16.6855 21.6872 16.7194 21.9524C16.7721 22.3675 17.0329 23.3028 17.1761 23.7142C17.7444 25.3421 19.6489 25.3625 20.5879 26.5387C21.3182 27.453 20.8071 28.3376 19.6184 28.2311C18.6112 28.1408 16.3564 27.0926 15.5684 26.4553C13.9902 25.1786 14.0007 23.1404 12.3153 21.9174C11.9801 21.6738 10.8542 20.958 10.5728 21.5641C10.3059 22.139 10.8697 22.232 11.1921 22.4143C12.1943 22.9801 12.7565 23.6561 13.0373 24.7672C13.2282 25.5217 13.0806 26.7103 12.4613 27.2663C12.0845 27.6046 11.2992 27.4255 11.221 27.9504C11.1094 28.6963 12.1683 28.4178 12.6244 28.4479C13.2537 28.4893 14.3043 28.7318 14.322 29.496C14.3331 29.9725 13.9935 30.0844 13.5706 30.1167C12.6389 30.1876 11.0256 30.0403 10.09 29.8827C8.08775 29.5461 6.87852 28.8028 6.45398 26.7915C5.59937 22.7397 7.24645 17.785 10.6288 15.2197C10.8586 15.0454 11.1033 14.8803 11.3586 14.7416C11.6344 14.9422 12.1172 15.6499 12.5406 15.3509C12.7399 15.2105 12.746 14.9545 12.6649 14.7491C12.5623 14.4883 11.9313 13.8558 11.7204 13.5138C10.8902 12.1661 10.6078 10.6441 10.8225 9.08826L10.8236 9.08611ZM5.77307 27.9617C5.09437 28.0284 4.45118 27.7326 3.89069 27.3933C1.92174 26.1999 0.885654 23.8658 1.05658 21.6442C1.17312 20.1303 2.08878 19.0509 1.7608 17.4107C1.63983 16.8067 1.26024 16.4265 1.3335 15.7811C1.44282 14.8153 2.62985 14.8357 3.21865 15.4601C4.89902 17.2413 3.13318 20.0324 3.05161 22.0712C2.98834 23.648 3.81521 25.3088 5.31634 25.9848C5.41956 26.6538 5.5411 27.3217 5.77307 27.9622V27.9617ZM40.8063 17.9167C40.9839 17.9662 41.0538 18.1942 41.0061 18.355C40.3495 21.3049 39.7613 24.2692 39.1081 27.219C39.0371 27.5395 38.607 29.6181 38.5155 29.7101C38.4622 29.7639 38.2363 29.8252 38.1497 29.8397C37.6248 29.9268 36.9272 29.9553 36.3778 30.0048C32.1763 30.385 27.9582 30.6227 23.7572 31.0062L23.644 30.9476C24.5402 27.1507 25.1967 23.2963 26.1679 19.5194C26.4037 19.0203 26.5042 18.7702 27.1119 18.7132C30.1236 18.4298 33.1891 18.3572 36.2113 18.1738C37.3834 18.1028 38.5965 17.9517 39.7641 17.906C39.996 17.8968 40.6226 17.8656 40.8063 17.9167ZM21.8116 26.7253C21.6362 26.0536 21.089 25.5416 20.5352 25.1388L20.7283 24.9517L22.1984 26.5919C22.2478 26.7146 21.8837 26.7 21.811 26.7253H21.8116ZM15.0956 28.4463C15.0495 28.4775 14.5457 28.0677 14.4258 27.994C14.1594 27.8294 13.8747 27.7046 13.5995 27.5557L14.0423 26.3489C14.5301 26.9001 15.0851 27.368 15.706 27.774C15.4086 27.8864 15.1794 28.1467 15.0951 28.4457L15.0956 28.4463ZM15.9841 28.9297C16.0695 28.5458 16.6328 28.5866 16.9541 28.6081C18.4336 28.7071 19.7449 29.8467 21.1712 28.7673C21.7905 28.2989 21.8105 27.6869 22.7333 27.5922C22.9242 27.5723 23.1185 27.5912 23.3094 27.5852L22.6179 30.7997L15.9835 28.9297H15.9841Z" fill="black"/>
<path d="M19.2754 15.3073C19.7465 15.8112 21.0329 15.5778 21.5062 15.1223C21.943 15.6838 23.7011 15.6547 23.5856 14.7641C23.5007 14.108 22.7898 14.5426 22.4635 14.5076C22.1178 14.47 21.9019 14.171 21.9158 13.8445C21.9363 13.3626 22.4707 13.5428 22.6017 13.268C22.6766 13.1115 22.6777 12.8776 22.564 12.7388C22.2083 12.3043 20.1128 12.3645 20.2782 13.175C20.3697 13.6256 21.3215 13.5148 20.7809 14.3C20.3692 14.8986 19.6999 14.278 19.3142 14.5463C19.0839 14.7066 19.0972 15.118 19.2748 15.3084L19.2754 15.3073Z" fill="black"/>
<path d="M17.3837 9.85084C16.0019 9.7051 15.8104 11.7347 17.1789 11.8299C18.5419 11.9246 18.7272 9.99282 17.3837 9.85084Z" fill="black"/>
<path d="M25.437 9.75079C24.2427 9.72767 24.0047 11.3459 25.0602 11.6637C26.6379 12.1392 27.0091 9.78145 25.437 9.75079Z" fill="black"/>
</g>
</g>
<path d="M131.451 23.5V22.1364V20.7727V19.4091V18.0455V16.6818V15.3182V13.9545V12.5909V11.2273V9.86364V8.5H132.774H134.097H135.419V9.86364V11.2273V12.5909H134.097V11.2273V9.86364H132.774V11.2273V12.5909H134.097V13.9545H135.419V15.3182V16.6818V18.0455V19.4091H134.097V18.0455V16.6818V15.3182V13.9545H132.774V15.3182V16.6818V18.0455V19.4091H134.097V20.7727H132.774V22.1364V23.5H131.451ZM144.677 23.5H143.355H142.032V22.1364V20.7727V19.4091V18.0455H140.71V19.4091V20.7727H139.387V22.1364H138.064V23.5H136.742H135.419V22.1364H136.742H138.064V20.7727H139.387V19.4091V18.0455H138.064H136.742V16.6818H138.064H139.387H140.71H142.032H143.355H144.677H146V18.0455H144.677H143.355V19.4091V20.7727V22.1364H144.677V20.7727H146V22.1364V23.5H144.677ZM144.677 13.9545H143.355H142.032H140.71H139.387H138.064V12.5909H136.742V11.2273V9.86364H138.064H139.387H140.71V8.5H142.032V9.86364H143.355H144.677H146V11.2273V12.5909V13.9545H144.677ZM143.355 12.5909H144.677V11.2273H143.355H142.032H140.71H139.387H138.064V12.5909H139.387H140.71H142.032H143.355Z" fill="black"/>
<path d="M124.315 18.0455V16.6818V15.3182H122.992H121.669H120.347H119.024H117.702H116.379H115.056H113.734H112.411V16.6818V18.0455H111.089V16.6818V15.3182V13.9545H112.411V12.5909V11.2273V9.86364V8.5H113.734H115.056V9.86364H113.734V11.2273H115.056H116.379V12.5909H115.056H113.734V13.9545H115.056H116.379V12.5909H117.702V13.9545H119.024V12.5909H120.347V11.2273H121.669H122.992V9.86364H121.669V8.5H122.992H124.315V9.86364V11.2273V12.5909V13.9545H125.637V15.3182V16.6818V18.0455H124.315ZM117.702 23.5H116.379H115.056V22.1364H116.379H117.702V20.7727H116.379H115.056H113.734H112.411H111.089V19.4091H112.411H113.734H115.056H116.379H117.702H119.024V18.0455H117.702H116.379H115.056V16.6818H116.379H117.702H119.024H120.347H121.669V18.0455H120.347V19.4091H121.669H122.992H124.315H125.637V20.7727H124.315H122.992H121.669H120.347H119.024V22.1364V23.5H117.702ZM121.669 13.9545H122.992V12.5909H121.669H120.347V13.9545H121.669ZM119.024 12.5909H117.702V11.2273H119.024V12.5909ZM120.347 11.2273H119.024V9.86364H120.347V11.2273ZM117.702 11.2273H116.379V9.86364H117.702V11.2273ZM119.024 9.86364H117.702V8.5H119.024V9.86364Z" fill="black"/>
<path d="M102.629 12.5909V11.2273H101.306H99.9838V12.5909H98.6612V11.2273H97.3386H96.016V9.86364H97.3386H98.6612V8.5H99.9838V9.86364H101.306H102.629V8.5H103.952V9.86364H105.274V11.2273H103.952V12.5909H102.629ZM103.952 23.5H102.629H101.306H99.9838H98.6612H97.3386H96.016V22.1364V20.7727V19.4091V18.0455V16.6818V15.3182V13.9545H97.3386H98.6612H99.9838H101.306H102.629H103.952H105.274V15.3182V16.6818V18.0455V19.4091V20.7727V22.1364V23.5H103.952ZM102.629 22.1364H103.952V20.7727V19.4091H102.629H101.306V20.7727V22.1364H102.629ZM98.6612 22.1364H99.9838V20.7727V19.4091H98.6612H97.3386V20.7727V22.1364H98.6612ZM93.3708 22.1364H92.0482H90.7256V20.7727V19.4091V18.0455V16.6818V15.3182V13.9545V12.5909V11.2273V9.86364H92.0482H93.3708H94.6934V11.2273V12.5909V13.9545V15.3182V16.6818V18.0455V19.4091V20.7727V22.1364H93.3708ZM93.3708 20.7727V19.4091V18.0455V16.6818V15.3182V13.9545V12.5909V11.2273H92.0482V12.5909V13.9545V15.3182V16.6818V18.0455V19.4091V20.7727H93.3708ZM102.629 18.0455H103.952V16.6818V15.3182H102.629H101.306V16.6818V18.0455H102.629ZM98.6612 18.0455H99.9838V16.6818V15.3182H98.6612H97.3386V16.6818V18.0455H98.6612Z" fill="black"/>
<path d="M83.5888 23.5V22.1364V20.7727H84.9114V22.1364V23.5H83.5888ZM73.008 22.1364H74.3306V23.5H73.008H71.6854H70.3628V22.1364H71.6854H73.008ZM78.2984 20.7727H79.621V22.1364H78.2984H76.9758H75.6532H74.3306V20.7727V19.4091V18.0455V16.6818H73.008H71.6854V15.3182H73.008H74.3306H75.6532H76.9758H78.2984V16.6818H76.9758H75.6532V18.0455V19.4091V20.7727H76.9758H78.2984ZM83.5888 20.7727H82.2662V19.4091V18.0455H83.5888V19.4091V20.7727ZM82.2662 18.0455H80.9436V16.6818V15.3182V13.9545H82.2662V15.3182V16.6818V18.0455ZM80.9436 13.9545H79.621V12.5909H78.2984H76.9758H75.6532H74.3306H73.008H71.6854H70.3628V11.2273H71.6854H73.008H74.3306H75.6532H76.9758H78.2984H79.621V9.86364V8.5H80.9436V9.86364V11.2273H82.2662H83.5888V9.86364V8.5H84.9114V9.86364V11.2273V12.5909H83.5888H82.2662H80.9436V13.9545Z" fill="black"/>
<path d="M52.6452 23.5V22.1364V20.7727V19.4091H51.3226V20.7727V22.1364H50V20.7727V19.4091H51.3226V18.0455V16.6818H52.6452V15.3182H51.3226H50V13.9545H51.3226H52.6452V12.5909V11.2273H51.3226H50V9.86364H51.3226H52.6452H53.9678V11.2273V12.5909V13.9545H55.2904V15.3182H53.9678V16.6818V18.0455H55.2904V19.4091H53.9678V20.7727V22.1364V23.5H52.6452ZM63.226 22.1364H64.5486V23.5H63.226H61.9034H60.5808H59.2582H57.9356H56.613V22.1364H57.9356H59.2582H60.5808V20.7727V19.4091H59.2582H57.9356H56.613V18.0455H57.9356H59.2582H60.5808V16.6818H59.2582H57.9356H56.613V15.3182H57.9356H59.2582H60.5808H61.9034H63.226H64.5486V16.6818H63.226H61.9034V18.0455H63.226H64.5486V19.4091H63.226H61.9034V20.7727V22.1364H63.226ZM63.226 13.9545H61.9034H60.5808H59.2582H57.9356H56.613V12.5909V11.2273V9.86364H55.2904H53.9678V8.5H55.2904H56.613H57.9356H59.2582H60.5808H61.9034H63.226H64.5486V9.86364V11.2273V12.5909V13.9545H63.226ZM61.9034 12.5909H63.226V11.2273V9.86364H61.9034H60.5808H59.2582H57.9356V11.2273V12.5909H59.2582H60.5808H61.9034Z" fill="black"/>
<defs>
<clipPath id="clip0_21_641">
<rect width="42" height="32" fill="white"/>
</clipPath>
<clipPath id="clip1_21_641">
<rect width="42" height="32" fill="white" transform="matrix(-1 0 0 1 42 0)"/>
</clipPath>
</defs>
</svg>
